<svg x="0px" y="0px" viewBox="0 0 512 512" style="fill:currentColor" xml:space="preserve" >
	<path d="M488.4,492h-21.9V173.5c0-14.8-12.1-26.9-26.9-26.9h-49c-14.8,0-26.9,12.1-26.9,26.9V492H308V317.8
		c0-14.8-12.1-26.9-26.9-26.9h-49c-14.8,0-26.9,12.1-26.9,26.9V492h-55.7v-90.2c0-14.8-12.1-26.9-26.9-26.9h-49
		c-14.8,0-26.9,12.1-26.9,26.9V492H23.6c-5.5,0-10,4.5-10,10s4.5,10,10,10h464.8c5.5,0,10-4.5,10-10S493.9,492,488.4,492L488.4,492z
		M129.5,492H66.7v-90.2c0-3.8,3.1-6.9,6.9-6.9h49c3.8,0,6.9,3.1,6.9,6.9L129.5,492z M288,492h-62.8V317.8c0-3.8,3.1-6.9,6.9-6.9h49
		c3.8,0,6.9,3.1,6.9,6.9V492z M446.5,492h-62.8V173.5c0-3.8,3.1-6.9,6.9-6.9h49c3.8,0,6.9,3.1,6.9,6.9L446.5,492z"/>
	<path d="M466.4,10.5c0.1-2.7-0.8-5.5-2.9-7.6s-4.9-3-7.6-2.9c-0.2,0-0.3,0-0.5,0H395c-5.5,0-10,4.5-10,10s4.5,10,10,10h37.4
		l-98.9,98.9l-37.3-37.3c-1.9-1.9-4.4-2.9-7.1-2.9s-5.2,1.1-7.1,2.9L102.3,261.3c-3.9,3.9-3.9,10.2,0,14.1c2,2,4.5,2.9,7.1,2.9
		s5.1-1,7.1-2.9l172.7-172.7l37.3,37.3c3.9,3.9,10.2,3.9,14.1,0L446.5,34.1V68c0,5.5,4.5,10,10,10s10-4.5,10-10V11
		C466.5,10.8,466.4,10.7,466.4,10.5L466.4,10.5z"/>
	<circle cx="75.6" cy="303.3" r="10"/>
</svg>
