<svg x="0px" y="0px" viewBox="0 0 512 512" style="fill:currentColor" xml:space="preserve">
<path d="M144.5,182.8v145.1c-0.1,3.4,2.1,6.5,5.3,7.6L256,369.7c0.8,0.3,1.6,0.4,2.4,0.4c0.8,0,1.6-0.1,2.4-0.4l106-34.3
	c3.2-1.1,5.4-4.2,5.3-7.6V182.8c0.1-3.4-2.1-6.5-5.3-7.6l-106.2-34.3c-1.6-0.5-3.3-0.5-4.8,0l-106,34.3
	C146.6,176.3,144.4,179.4,144.5,182.8z M160.5,193.8l88.9,28.8v128.3L160.5,322V193.8z M265.3,351.5V223.2l90.9-29.4V322
	L265.3,351.5z M258.4,156.9l80.2,25.9l-80.2,25.9l-80.2-25.9L258.4,156.9z"/>
<path d="M0.9,346.3c0,12.8,6.8,24.5,17.9,30.9c11.1,6.4,24.7,6.3,35.7-0.1l80.6,80.6c-7.3,12-6.9,27.2,1.1,38.8
	c8,11.6,22,17.4,35.9,14.8c13.8-2.6,24.9-13.1,28.1-26.7h112.7c3.3,13.7,14.3,24.2,28.2,26.8c13.9,2.5,28-3.3,35.9-15
	c7.9-11.7,8.2-26.9,0.8-38.9l79.8-80.3c12.1,7,27.1,6.3,38.4-1.8c11.4-8,17-22,14.4-35.7c-2.6-13.7-12.9-24.6-26.4-28V198.8
	c13.6-3.4,23.9-14.4,26.4-28.1c2.5-13.7-3.2-27.7-14.6-35.7c-11.4-8-26.5-8.6-38.5-1.5L378,54.2c7.3-12,6.9-27.2-1.1-38.8
	c-8-11.6-22-17.4-35.9-14.8c-13.8,2.6-24.8,13.1-28.1,26.7H200.2c-3.3-13.6-14.2-24.1-28-26.7c-13.8-2.6-27.8,3.1-35.9,14.5
	c-8.1,11.5-8.6,26.6-1.5,38.7l-80.1,79.8c-11.9-7.1-26.8-6.6-38.2,1.2C5,142.6-0.9,156.3,1.4,170c2.2,13.7,12.1,24.8,25.5,28.6V312
	C11.5,316.5,1,330.4,0.9,346.3z M17.8,346.3c0-10.2,8.2-18.5,18.3-18.7h0.4c10.3,0,18.7,8.4,18.7,18.7c0,10.3-8.4,18.7-18.7,18.7
	C26.2,365,17.8,356.7,17.8,346.3z M165.5,495c-10.3,0-18.7-8.4-18.7-18.7c0-10.3,8.4-18.7,18.7-18.7c10.3,0,18.7,8.4,18.7,18.7
	C184.2,486.7,175.8,495,165.5,495z M347.5,495c-10.3,0-18.7-8.4-18.7-18.7c0-10.3,8.4-18.7,18.7-18.7c10.3,0,18.7,8.4,18.7,18.7
	C366.2,486.7,357.9,495,347.5,495z M494.1,346.3c0,10.3-8.4,18.7-18.7,18.7c-10.3,0-18.7-8.4-18.7-18.7c0-10.3,8.4-18.7,18.7-18.7
	C485.8,327.6,494.1,336,494.1,346.3z M494.1,164.3c0,10.3-8.4,18.7-18.7,18.7c-10.3,0-18.7-8.4-18.7-18.7c0-10.3,8.4-18.7,18.7-18.7
	C485.8,145.6,494.1,153.9,494.1,164.3z M347.5,17c10.3,0,18.7,8.4,18.7,18.7c0,10.3-8.4,18.7-18.7,18.7c-10.3,0-18.7-8.4-18.7-18.7
	C328.8,25.3,337.2,17,347.5,17z M200.1,44.3H313c2.7,11,10.5,20,21,24.3c10.5,4.3,22.3,3.4,32-2.5l79.2,79.2
	c-6.1,9.7-7.1,21.8-2.8,32.4c4.3,10.6,13.5,18.5,24.7,21.1v112.7c-11.2,2.7-20.4,10.6-24.8,21.3s-3.2,22.8,3,32.5l-79.7,80.2
	c-9.7-5.7-21.5-6.6-31.9-2.2c-10.4,4.3-18.1,13.3-20.8,24.3H200.1c-2.7-11-10.5-20-21-24.3c-10.5-4.3-22.3-3.4-32,2.4l-80.4-80.4
	c6.3-9.9,7.3-22.2,2.7-33s-14.1-18.6-25.6-21V199.2c11.4-2.4,20.9-10.1,25.5-20.8c4.6-10.7,3.7-23-2.5-32.9l79.9-79.5
	c9.7,6,21.6,7,32.2,2.8C189.4,64.4,197.3,55.4,200.1,44.3z M165.5,17c10.3,0,18.7,8.4,18.7,18.7c0,10.3-8.4,18.7-18.7,18.7
	c-10.3,0-18.7-8.4-18.7-18.7C146.8,25.3,155.2,17,165.5,17z M17.8,164.3c0-10.3,8.4-18.7,18.7-18.7c10.3,0,18.7,8.4,18.7,18.7
	c0,10.3-8.4,18.7-18.7,18.7C26.2,183,17.8,174.6,17.8,164.3z"/>
</svg>
