<svg x="0px" y="0px" viewBox="0 0 512 512" style="fill:currentColor" xml:space="preserve">
<rect x="238.9" y="392.5" style="fill:currentColor" width="34.1" height="102.4"/>
<path style="fill:currentColor" d="M162.1,477.9h187.7c4.7,0,8.5,3.8,8.5,8.5v17.1c0,4.7-3.8,8.5-8.5,8.5H162.1c-4.7,0-8.5-3.8-8.5-8.5v-17.1
	C153.6,481.7,157.4,477.9,162.1,477.9z"/>
<path style="fill:currentColor" d="M0,34.1C0,15.3,15.3,0,34.1,0h443.7C496.7,0,512,15.3,512,34.1v341.3H0V34.1z"/>
<path style="fill:currentColor" d="M0,375.5h512c0,18.9-15.3,34.1-34.1,34.1H34.1C15.3,409.6,0,394.3,0,375.5z"/>
<g>
	<defs>
		<rect id="CODEDISPLAY_SVGID_1_" x="119.5" y="102.4" width="256.6" height="204.8"/>
	</defs>
	<clipPath id="CODEDISPLAY_SVGID_2_">
		<use xlink:href="#CODEDISPLAY_SVGID_1_"  style="overflow:visible;"/>
	</clipPath>
	<g style="clip-path:url(#CODEDISPLAY_SVGID_2_);">
		<path style="fill:#fff" d="M373.5,198.2l-59.4-63.1c-3.6-3.9-9.7-4.1-13.6-0.4c-3.9,3.7-4,9.8-0.4,13.7l53.1,56.5l-53.1,56.5
			c-3.6,3.9-3.5,10,0.4,13.7c1.9,1.8,4.2,2.6,6.6,2.6c2.6,0,5.1-1,7-3l59.4-63.1C377,207.7,377,201.9,373.5,198.2z"/>
		<path style="fill:#fff" d="M195.4,261.3l-53.1-56.5l53.1-56.5c3.6-3.9,3.5-10-0.4-13.7c-3.9-3.7-10-3.5-13.6,0.4l-59.4,63.1
			c-3.5,3.7-3.5,9.5,0,13.3l59.4,63.1c1.9,2,4.4,3,7,3c2.4,0,4.7-0.9,6.6-2.6C198.9,271.3,199.1,265.2,195.4,261.3z"/>
		<path style="fill:#fff" d="M263.4,102.5c-5.3-0.8-10.2,2.8-11,8.1l-28.2,185.5c-0.8,5.3,2.8,10.2,8.1,11c0.5,0.1,1,0.1,1.5,0.1
			c4.7,0,8.8-3.4,9.5-8.2l28.2-185.5C272.2,108.2,268.6,103.3,263.4,102.5z"/>
	</g>
</g>
</svg>
