<svg x="0px" y="0px" viewBox="0 0 512 512" style="fill:currentColor" xml:space="preserve">
<g>
	<path d="M160,128H32c-17.6,0-32-14.4-32-32V32C0,14.4,14.4,0,32,0h128c17.6,0,32,14.4,32,32v64C192,113.6,177.6,128,160,128z
		 M32,21.3c-5.9,0-10.7,4.8-10.7,10.7v64c0,5.9,4.8,10.7,10.7,10.7h128c5.9,0,10.7-4.8,10.7-10.7V32c0-5.9-4.8-10.7-10.7-10.7H32z"
		/>
</g>
<g>
	<path d="M160,320H32c-17.6,0-32-14.4-32-32v-64c0-17.6,14.4-32,32-32h128c17.6,0,32,14.4,32,32v64C192,305.6,177.6,320,160,320z
		 M32,213.3c-5.9,0-10.7,4.8-10.7,10.7v64c0,5.9,4.8,10.7,10.7,10.7h128c5.9,0,10.7-4.8,10.7-10.7v-64c0-5.9-4.8-10.7-10.7-10.7H32z
		"/>
</g>
<g>
	<path d="M480,512H32c-17.6,0-32-14.4-32-32v-64c0-17.6,14.4-32,32-32h448c17.6,0,32,14.4,32,32v64C512,497.6,497.6,512,480,512z
		 M32,405.3c-5.9,0-10.7,4.8-10.7,10.7v64c0,5.9,4.8,10.7,10.7,10.7h448c5.9,0,10.7-4.8,10.7-10.7v-64c0-5.9-4.8-10.7-10.7-10.7H32z
		"/>
</g>
<g>
	<path d="M501.3,42.7h-256c-5.9,0-10.7-4.8-10.7-10.7s4.8-10.7,10.7-10.7h256c5.9,0,10.7,4.8,10.7,10.7S507.2,42.7,501.3,42.7z"/>
</g>
<g>
	<path d="M501.3,106.7h-256c-5.9,0-10.7-4.8-10.7-10.7s4.8-10.7,10.7-10.7h256c5.9,0,10.7,4.8,10.7,10.7S507.2,106.7,501.3,106.7z"
		/>
</g>
<g>
	<path d="M501.3,234.7h-256c-5.9,0-10.7-4.8-10.7-10.7s4.8-10.7,10.7-10.7h256c5.9,0,10.7,4.8,10.7,10.7S507.2,234.7,501.3,234.7z"
		/>
</g>
<g>
	<path d="M501.3,298.7h-256c-5.9,0-10.7-4.8-10.7-10.7s4.8-10.7,10.7-10.7h256c5.9,0,10.7,4.8,10.7,10.7S507.2,298.7,501.3,298.7z"
		/>
</g>
</svg>
