<svg viewBox="0 0 512 512" style="fill:currentColor" xml:space="preserve">
<g>
	<path d="M462.5,276.9V115c28-4,49.5-28.1,49.5-57.1C512,25.9,486.1,0,454.2,0s-57.8,25.9-57.8,57.8H0v330.3h248.2
		c4.3,69,61.6,123.9,131.7,123.9c72.9,0,132.1-59.3,132.1-132.1C512,338.3,492.6,301.1,462.5,276.9z M454.2,16.5
		c22.8,0,41.3,18.5,41.3,41.3S477,99.1,454.2,99.1s-41.3-18.5-41.3-41.3S431.4,16.5,454.2,16.5z M16.5,74.3h382.3
		c2,6.6,5.1,12.7,9.1,18l-50.5,50.5c-3.2-1.6-6.8-2.5-10.6-2.5s-7.4,0.9-10.6,2.5l-16.6-16.6c1.5-3.2,2.5-6.8,2.5-10.6
		c0-13.7-11.1-24.8-24.8-24.8c-13.7,0-24.8,11.1-24.8,24.8c0,3.8,0.9,7.4,2.5,10.6l-41.4,41.4c-3.2-1.5-6.8-2.5-10.6-2.5
		c-13.7,0-24.8,11.1-24.8,24.8s11.1,24.8,24.8,24.8s24.8-11.1,24.8-24.8c0-3.8-0.9-7.4-2.5-10.6l41.4-41.4c3.2,1.5,6.8,2.5,10.6,2.5
		s7.4-0.9,10.6-2.5l16.6,16.6c-1.5,3.2-2.5,6.8-2.5,10.6c0,13.7,11.1,24.8,24.8,24.8c13.7,0,24.8-11.1,24.8-24.8
		c0-3.8-0.9-7.4-2.5-10.6l50.5-50.5c7.6,5.7,16.5,9.5,26.3,10.9v150.7c-19.5-11.3-42-17.9-66.1-17.9c-39.5,0-74.9,17.5-99.1,45V256
		h-49.5v99.1h18.9c-1,5.4-1.6,10.9-2,16.5H16.5V74.3z M346.8,156.9c4.6,0,8.3,3.7,8.3,8.3c0,4.6-3.7,8.3-8.3,8.3
		c-4.6,0-8.3-3.7-8.3-8.3C338.6,160.6,342.3,156.9,346.8,156.9z M289,115.6c0-4.6,3.7-8.3,8.3-8.3c4.6,0,8.3,3.7,8.3,8.3
		c0,4.6-3.7,8.3-8.3,8.3C292.7,123.9,289,120.2,289,115.6z M231.2,189.9c0,4.6-3.7,8.3-8.3,8.3s-8.3-3.7-8.3-8.3s3.7-8.3,8.3-8.3
		S231.2,185.4,231.2,189.9z M379.9,445.9c-36.4,0-66.1-29.6-66.1-66.1s29.6-66.1,66.1-66.1s66.1,29.6,66.1,66.1
		S416.3,445.9,379.9,445.9z M264.3,316c-4,7.1-7.2,14.7-9.8,22.5h-6.7v-66.1h16.5V316z M371.6,264.7v33
		c-41.7,4.2-74.3,39.4-74.3,82.2c0,12.1,2.7,23.5,7.4,33.9L276,430.3c-7.4-15.3-11.7-32.3-11.7-50.4
		C264.3,318.9,311.7,268.9,371.6,264.7L371.6,264.7z M379.9,495.5c-39.8,0-74.9-20.2-95.7-50.8l28.8-16.6
		c15,20.8,39.4,34.4,66.9,34.4s51.9-13.6,66.9-34.4l28.8,16.6C454.8,475.3,419.6,495.5,379.9,495.5z M483.7,430.3l-28.6-16.5
		c4.7-10.4,7.4-21.8,7.4-33.9c0-42.7-32.7-78-74.3-82.2v-33c59.9,4.3,107.4,54.2,107.4,115.2C495.5,398,491.2,415,483.7,430.3
		L483.7,430.3z"/>
	<path d="M379.9,330.3c-27.3,0-49.5,22.2-49.5,49.5c0,27.3,22.2,49.5,49.5,49.5s49.5-22.2,49.5-49.5
		C429.4,352.5,407.2,330.3,379.9,330.3z M379.9,412.9c-18.2,0-33-14.8-33-33c0-18.2,14.8-33,33-33c18.2,0,33,14.8,33,33
		C412.9,398.1,398.1,412.9,379.9,412.9z"/>
	<path d="M33,90.8h16.5v16.5H33V90.8z"/>
	<path d="M66.1,90.8h115.6v16.5H66.1V90.8z"/>
	<path d="M33,123.9h16.5v16.5H33V123.9z"/>
	<path d="M66.1,123.9h115.6v16.5H66.1V123.9z"/>
	<path d="M33,156.9h16.5v16.5H33V156.9z"/>
	<path d="M66.1,156.9h115.6v16.5H66.1V156.9z"/>
	<path d="M33,189.9h16.5v16.5H33V189.9z"/>
	<path d="M66.1,189.9h115.6v16.5H66.1V189.9z"/>
	<path d="M33,355.1h49.5v-82.6H33V355.1z M49.5,289h16.5v49.5H49.5V289z"/>
	<path d="M99.1,355.1h49.5V289H99.1V355.1z M115.6,305.5h16.5v33h-16.5V305.5z"/>
	<path d="M165.2,355.1h49.5V223h-49.5V355.1z M181.7,239.5h16.5v99.1h-16.5V239.5z"/>
</g>
</svg>
