<svg x="0px" y="0px" viewBox="0 0 512 512" style="fill:currentColor" xml:space="preserve">
<path style="fill:currentColor" d="M487,192.8h-39.3v-17.1C447.7,77.7,352.2,0,256,0C160,0,64.3,77.5,64.3,175.7v17.1H25c-13.8,0-25,11.2-25,25
	v108.5c0,13.8,11.2,25,25,25h39.3v31.5c0,53.5,43.5,97,97,97h39.5v7.1c0,13.8,11.2,25,25,25h60.3c13.8,0,25-11.2,25-25v-44.3
	c0-13.8-11.2-25-25-25h-60.3c-13.8,0-25,11.2-25,25v7.1h-39.5c-37,0-67-30.1-67-67v-7.4h39.3c13.8,0,25-11.2,25-25V193.7
	c0-13.8-11.2-25-25-25H94.5C99,95.2,173.9,30,256,30s157,65.2,161.5,138.7h-39.1c-13.8,0-25,11.2-25,25v156.7c0,13.8,11.2,25,25,25
	h44.3c13.5,0,24.5-10.7,25-24.1H487c13.8,0,25-11.2,25-25V217.8C512,204,500.8,192.8,487,192.8z"/>
</svg>
