<svg viewBox="0 0 512 512" style="fill:currentColor" xml:space="preserve">
<style type="text/css">
	.st0{clip-path:url(#SVGID_2_);}
</style>
<g>
	<defs>
		<rect id="SVGID_1_" y="39.7" width="512" height="432.6"/>
	</defs>
	<clipPath id="SVGID_2_">
		<use xlink:href="#SVGID_1_"  style="overflow:visible;"/>
	</clipPath>
	<path class="st0" d="M153,56.9h342v12.6H153V56.9z M153,85.7h342v188.1H153V85.7z M443.3,319h-342V102.1h35.6v179.7
		c0,4.5,3.6,8.1,8.1,8.1h298.4V319z M407.7,389.3c0,5.8-4.7,10.5-10.5,10.5H26.6c-5.8,0-10.5-4.7-10.5-10.5V143.8
		c0-5.8,4.7-10.5,10.5-10.5h58.5v8.6H32.8c-4.5,0-8.1,3.6-8.1,8.1v233.1c0,4.5,3.6,8.1,8.1,8.1H391c4.5,0,8.1-3.6,8.1-8.1v-47.9h8.6
		V389.3z M184.9,454.8l8.6-38.8h36.8l8.6,38.8H184.9z M93.2,335.2h289.7V375h-342V158.1h44.2v169C85.1,331.6,88.7,335.2,93.2,335.2z
		 M503.1,40.7H144.9c-4.5,0-8.1,3.6-8.1,8.1V86H93.2c-4.5,0-8.1,3.6-8.1,8.1v23.1H26.6c-14.7,0-26.6,12-26.6,26.6v245.6
		c0,14.7,11.9,26.6,26.6,26.6h150.4l-8.6,38.8h-27.4c-4.5,0-8.1,3.6-8.1,8.1c0,4.5,3.6,8.1,8.1,8.1h142.1c4.5,0,8.1-3.6,8.1-8.1
		c0-4.5-3.6-8.1-8.1-8.1h-27.4l-8.6-38.8h150.4c14.7,0,26.6-11.9,26.6-26.6v-54.1h27.5c4.5,0,8.1-3.6,8.1-8.1v-37.2h43.7
		c4.5,0,8.1-3.6,8.1-8.1V48.8C511.2,44.3,507.6,40.7,503.1,40.7z"/>
</g>
<path d="M198,148h47.2v102.8H198V148z M192,262.8h59.2c3.3,0,6-2.7,6-6V142c0-3.3-2.7-6-6-6H192c-3.3,0-6,2.7-6,6v114.8
	C186,260.1,188.7,262.8,192,262.8z"/>
<path d="M367.8,148h47.2v102.8h-47.2V148z M361.8,262.8h59.2c3.3,0,6-2.7,6-6V142c0-3.3-2.7-6-6-6h-59.2c-3.3,0-6,2.7-6,6v114.8
	C355.8,260.1,358.5,262.8,361.8,262.8z"/>
<path d="M282.9,148h47.3v102.8h-47.3V148z M276.9,262.8h59.3c3.3,0,6-2.7,6-6V142c0-3.3-2.7-6-6-6h-59.3c-3.3,0-6,2.7-6,6v114.8
	C270.9,260.1,273.6,262.8,276.9,262.8z"/>
</svg>
