<svg x="0px" y="0px" viewBox="0 0 512 512" style="fill:currentColor" xml:space="preserve">
<g>
	<g>
		<path style="fill:currentColor" d="M305.6,41l-15-29.9c-5-9.9-17.1-13.9-27-8.9L13.8,127.6c-9.9,5-13.9,17.1-8.9,27l41.3,82.3
			c1.3,2.6,3.9,4.1,6.6,4.1c1.1,0,2.2-0.3,3.3-0.8c3.6-1.8,5.1-6.3,3.3-9.9l-41.3-82.3c-0.6-1.3-0.7-2.7-0.3-4.1
			c0.4-1.4,1.4-2.5,2.7-3.1L270.2,15.3c2.6-1.3,5.9-0.3,7.2,2.4l15,29.9c1.8,3.6,6.3,5.1,9.9,3.3C305.9,49.1,307.4,44.6,305.6,41z"
			/>
	</g>
</g>
<g>
	<g>
		<path style="fill:currentColor" d="M509.1,251.8c0-0.1,0-0.2-0.1-0.2c-0.1-0.3-0.1-0.6-0.3-0.9c0,0,0,0,0,0c-0.1-0.3-0.2-0.6-0.4-0.9
			c0-0.1-0.1-0.1-0.1-0.2c-0.2-0.3-0.3-0.6-0.5-0.8l-93-122.3c-0.2-0.3-0.4-0.5-0.7-0.7c-0.1-0.1-0.1-0.1-0.2-0.2
			c-0.2-0.2-0.5-0.4-0.7-0.6c0,0,0,0,0,0c-0.3-0.2-0.5-0.3-0.8-0.5c-0.1,0-0.1-0.1-0.2-0.1c-0.6-0.3-1.2-0.5-1.8-0.6
			c-0.1,0-0.2,0-0.2,0c-0.1,0-0.2,0-0.2,0L228,98.9c-11-1.5-21.1,6.2-22.6,17.2l-39.7,291.6l-55.2-289c-0.6-2.9,1.4-5.7,4.2-6.2
			l274.5-52.4c1.4-0.3,2.8,0,4,0.8c1.2,0.8,2,2,2.2,3.4l8,41.7c0.8,4,4.6,6.6,8.6,5.9c4-0.8,6.6-4.6,5.9-8.6l-8-41.7
			c-1-5.3-4-9.8-8.4-12.8c-4.4-3-9.8-4.1-15.1-3.1L112,98c-10.9,2.1-18,12.6-16,23.5L152,414.5L80.1,271.3c-1.8-3.6-6.3-5.1-9.9-3.3
			c-3.6,1.8-5.1,6.3-3.3,9.9l91.6,182.5l0,0.3c-0.4,2.9,0.4,5.7,2.1,8c1.8,2.3,4.3,3.8,7.2,4.2l286.1,38.9c0.9,0.1,1.8,0.2,2.7,0.2
			c9.9,0,18.5-7.3,19.9-17.4l32.7-240.4c0-0.1,0-0.2,0-0.2c0-0.1,0-0.2,0-0.2c0-0.3,0-0.6,0-0.9c0,0,0,0,0,0
			C509.2,252.5,509.1,252.1,509.1,251.8z M413.8,149.6l8.4,11l63.1,83l-82.7-11.3L413.8,149.6z M461.9,492.6c-0.4,2.9-3.1,5-6,4.6
			l-282.2-38.4L220,118.1c0.4-2.9,3.1-5,6-4.6l174.6,23.7l-12.7,93c-0.5,3.9,0.5,7.8,2.9,10.9c2.4,3.1,5.9,5.2,9.8,5.7l93,12.7
			L461.9,492.6z"/>
	</g>
</g>
</svg>
