<svg viewBox="0 0 512 512" style="fill:currentColor" xml:space="preserve">
<path d="M240.6,177.3c-51.6,0-93.6,42-93.6,93.6s42,93.6,93.6,93.6c51.6,0,93.6-42,93.6-93.6c0-22.3-7.9-42.9-21-59l28.9-28.9
	c20.5,23.6,32.9,54.3,32.9,87.9c0,74.1-60.3,134.4-134.4,134.4c-74.1,0-134.4-60.3-134.4-134.4c0-74.1,60.3-134.4,134.4-134.4
	c33.6,0,64.4,12.4,87.9,32.9l-28.9,28.9C283.5,185.2,263,177.3,240.6,177.3z M233.8,277.7c1.9,1.9,4.3,2.8,6.8,2.8
	c2.5,0,4.9-0.9,6.8-2.8l52.1-52.1c9.7,12.6,15.5,28.3,15.5,45.3c0,41-33.4,74.4-74.4,74.4c-41,0-74.4-33.4-74.4-74.4
	c0-41,33.4-74.4,74.4-74.4c17.1,0,32.8,5.8,45.3,15.5l-52.1,52.1C230.1,267.8,230.1,273.9,233.8,277.7z M434.7,261.3h-13.5
	c-5.3,0-9.6,4.3-9.6,9.6c0,5.3,4.3,9.6,9.6,9.6h13.5c-4.9,99.5-85,179.6-184.5,184.5v-13.5c0-5.3-4.3-9.6-9.6-9.6
	c-5.3,0-9.6,4.3-9.6,9.6V465c-99.5-4.9-179.6-85-184.5-184.5H60c5.3,0,9.6-4.3,9.6-9.6c0-5.3-4.3-9.6-9.6-9.6H46.5
	c4.9-99.5,85-179.6,184.5-184.5v13.5c0,5.3,4.3,9.6,9.6,9.6c5.3,0,9.6-4.3,9.6-9.6V76.8c46.4,2.3,88.5,20.9,120.8,50.1l-28.9,28.9
	c-27.1-23.9-62.6-38.5-101.5-38.5c-84.7,0-153.6,68.9-153.6,153.6S156,424.4,240.6,424.4c84.7,0,153.6-68.9,153.6-153.6
	c0-38.9-14.5-74.4-38.5-101.5l28.9-28.9C413.9,172.8,432.5,214.9,434.7,261.3z M443.3,30.9l2.4,26.3c0.4,4.6,4.1,8.3,8.7,8.7
	l26.3,2.4l-34,34L413,98.5l-3.7-33.6L443.3,30.9z M449.1,121.8c0.4,0,0.7,0.1,1.1,0.1c2.5,0,5-1,6.8-2.8l51.7-51.7
	c2.6-2.6,3.5-6.6,2.2-10.1c-1.3-3.5-4.4-6-8.2-6.3l-38.7-3.5l-3.5-38.7c-0.3-3.7-2.8-6.9-6.3-8.1c-3.5-1.3-7.4-0.4-10.1,2.2
	l-51.7,51.7c-2.1,2.1-3.1,5-2.7,7.8l4.6,41.2l-9.7,9.7c-35.8-32.7-82.7-53.5-134.4-55.8V39.3c0-5.3-4.3-9.6-9.6-9.6
	c-5.3,0-9.6,4.3-9.6,9.6v18.2C120.9,62.5,32.2,151.1,27.3,261.3H9.1c-5.3,0-9.6,4.3-9.6,9.6c0,5.3,4.3,9.6,9.6,9.6h18.2
	c4.9,110.1,93.6,198.8,203.7,203.7v18.2c0,5.3,4.3,9.6,9.6,9.6c5.3,0,9.6-4.3,9.6-9.6v-18.2c110.1-4.9,198.8-93.6,203.7-203.7h18.2
	c5.3,0,9.6-4.3,9.6-9.6c0-5.3-4.3-9.6-9.6-9.6h-18.2c-2.3-51.7-23-98.6-55.8-134.4l9.7-9.7L449.1,121.8z"/>
</svg>
