<svg x="0px" y="0px" viewBox="0 0 515 512" style="fill:currentColor" xml:space="preserve">
<path d="M348.3,155.1c-5.5,0-10,4.5-10,10c0,5.5,4.5,10,10,10c5.5,0,10-4.5,10-10C358.3,159.6,353.9,155.1,348.3,155.1z"/>
<path d="M166.7,336.8c-5.5,0-10,4.5-10,10c0,5.5,4.5,10,10,10c5.5,0,10-4.5,10-10C176.7,341.3,172.2,336.8,166.7,336.8z"/>
<path d="M501.1,61.5c-3.4-0.8-6.9,0.2-9.4,2.7L450.2,106h-19.9l-21.9-22.7V63.2l40.9-41.5c2.4-2.5,3.4-6,2.6-9.3
	c-0.8-3.4-3.3-6.1-6.5-7.2c-10.3-3.5-21-5.2-31.9-5.2c-32.6,0-62.2,15.2-81.2,41.7c-17.8,24.8-23.3,55.2-15.4,84.2l-73.7,73.7
	l-122.7-123V52.4c0-3.5-1.8-6.8-4.9-8.6L44.9,1.4C41-0.9,36-0.3,32.7,2.9L4.4,31.2c-3.2,3.2-3.9,8.3-1.5,12.2l42.4,70.7
	c1.8,3,5.1,4.9,8.6,4.9l24.1,0l122.7,123l-73.4,73.4c-29.1-7.9-59.5-2.4-84.3,15.5c-26.5,19-41.6,48.6-41.6,81.2
	c0,10.9,1.8,21.7,5.2,31.9c1.1,3.3,3.8,5.8,7.2,6.5c3.4,0.8,6.9-0.2,9.4-2.7L64.8,406h20l22.8,22.8v20l-41.8,41.5
	c-2.5,2.4-3.5,6-2.7,9.4c0.8,3.4,3.3,6.1,6.5,7.2c10.3,3.5,21,5.2,31.9,5.2c32.6,0,62.1-15.2,81.2-41.6
	c17.8-24.8,23.3-55.2,15.5-84.3l58.9-58.9l13.5,14.7l-6.2,6.2c-3.9,3.9-3.9,10.2,0,14.1c3.9,3.9,10.2,3.9,14.1,0l5.6-5.6
	l126.7,137.6c0.1,0.1,0.2,0.2,0.3,0.3c23.4,23.4,61.4,23.4,84.9,0c23.4-23.4,23.4-61.5,0-84.9c-0.1-0.1-0.2-0.2-0.3-0.3L357.8,282.8
	l5.5-5.5c3.9-3.9,3.9-10.2,0-14.1s-10.2-3.9-14.1,0l-6.2,6.2l-14.7-13.5l59.2-59.2c8.4,2.2,17.1,3.4,25.9,3.4
	c55.1,0,100-44.9,100-100c0-10.9-1.8-21.7-5.2-31.9C507.2,64.8,504.4,62.3,501.1,61.5z M89.3,101.9c-1.9-1.9-4.4-2.8-7.1-2.8
	l-22.6,0L24.1,39.8l17.2-17.2l59.2,35.5v22.6c0,2.6,1.1,5.2,2.9,7.1l125.7,125.9l-14.1,14.1L89.3,101.9z M343.7,297l138.3,126.8
	c15.4,15.6,15.4,40.9-0.1,56.4c-15.6,15.6-40.8,15.6-56.4,0.1l-127.1-138L343.7,297z M328.9,283.5l-44.2,44.2L271.2,313l43-43
	L328.9,283.5z M413.5,180c-8.7,0-17.3-1.4-25.6-4.2c-3.6-1.2-7.6-0.3-10.3,2.4c-50.1,50.1-158.2,158.2-197.9,197.9
	c-2.7,2.7-3.6,6.7-2.4,10.3c8.3,24.7,4.3,51-10.9,72.2c-15.2,21.2-38.9,33.3-64.9,33.3c-2.9,0-5.8-0.2-8.7-0.5l31.8-31.5
	c1.9-1.9,3-4.4,3-7.1v-28.3c0-2.7-1.1-5.2-2.9-7.1l-28.6-28.6c-1.9-1.9-4.4-2.9-7.1-2.9H60.6c-2.7,0-5.2,1.1-7.1,3L22,420.7
	c-0.3-2.9-0.5-5.8-0.5-8.7c0-26.1,12.1-49.7,33.3-64.9c21.2-15.2,47.6-19.2,72.2-10.9c3.6,1.2,7.6,0.3,10.3-2.4
	c0.6-0.5,197.8-197.8,197.9-197.9c2.7-2.7,3.6-6.7,2.4-10.3c-8.3-24.7-4.3-51,10.9-72.2C363.8,32.1,387.4,20,413.5,20
	c3,0,6,0.2,9,0.5l-31.1,31.6c-1.8,1.9-2.9,4.4-2.9,7v28.3c0,2.6,1,5.1,2.8,6.9l27.6,28.6c1.9,2,4.5,3.1,7.2,3.1h28.3
	c2.7,0,5.2-1.1,7.1-3L493,91.3c0.3,2.9,0.5,5.8,0.5,8.7C493.5,144.1,457.6,180,413.5,180z"/>
<path d="M313,186.4L187.9,311.5c-3.9,3.9-3.9,10.2,0,14.1c3.9,3.9,10.2,3.9,14.1,0l125.1-125.1c3.9-3.9,3.9-10.2,0-14.1
	S316.9,182.4,313,186.4z"/>
<path d="M439.4,452c3.9,3.9,10.2,3.9,14.1,0c3.9-3.9,3.9-10.2,0-14.1L363.3,348c-3.9-3.9-10.2-3.9-14.1,0c-3.9,3.9-3.9,10.2,0,14.1
	L439.4,452z"/>
</svg>
