<svg x="0px" y="0px" viewBox="0 0 512 512" style="fill:currentColor" xml:space="preserve">
<path d="M436.6,175c-26.7-22.5-53.8-40.5-80.7-53.3C322,105.4,288.4,97.2,256,97.2s-66,8.2-99.9,24.5
	c-26.9,12.9-54.1,30.8-80.7,53.3c-45.3,38.2-73,75.8-74.2,77.4c-1.6,2.1-1.6,5.1,0,7.2c1.2,1.6,28.9,39.2,74.2,77.4
	c26.7,22.5,53.8,40.5,80.7,53.3c33.9,16.2,67.5,24.5,99.9,24.5s66-8.2,99.9-24.5c26.9-12.9,54.1-30.8,80.7-53.3
	c45.3-38.2,73-75.8,74.2-77.4c1.6-2.1,1.6-5.1,0-7.2C509.7,250.8,481.9,213.2,436.6,175L436.6,175z M428.7,327.7
	c-25.9,21.8-52.1,39.2-78.1,51.7c-32.2,15.4-64.1,23.3-94.6,23.3c-30.5,0-62.3-7.8-94.5-23.2c-26-12.4-52.2-29.8-78-51.6
	c-25.5-21.6-48.9-45.7-69.7-71.9c20.7-26.1,44-50.1,69.5-71.7c25.9-21.8,52.1-39.2,78.1-51.7c32.2-15.4,64.1-23.3,94.6-23.3
	c30.5,0,62.3,7.8,94.5,23.2c26,12.4,52.2,29.8,78,51.6c25.5,21.6,48.9,45.7,69.7,71.9C477.5,282.1,454.2,306.1,428.7,327.7z"/>
<path d="M249.9,20.1v54.6c0,3.4,2.7,6.1,6.1,6.1c3.4,0,6.1-2.7,6.1-6.1V20.1c0-3.4-2.7-6.1-6.1-6.1C252.6,14,249.9,16.7,249.9,20.1z
	"/>
<path d="M444.3,73.9l-42.8,42.6c-2.4,2.4-2.4,6.2,0,8.6c2.4,2.4,6.3,2.4,8.7,0L453,82.5c2.4-2.4,2.3-6.3-0.1-8.6
	C450.5,71.5,446.7,71.5,444.3,73.9z"/>
<path d="M101.8,125.1c2.4,2.4,6.3,2.4,8.7,0s2.4-6.2,0-8.6L67.7,73.9c-2.4-2.4-6.3-2.3-8.7,0.1c-2.3,2.4-2.3,6.2,0,8.6L101.8,125.1z
	"/>
<path d="M256,431.2c-3.4,0-6.1,2.7-6.1,6.1v54.6c0,3.4,2.7,6.1,6.1,6.1c3.4,0,6.1-2.7,6.1-6.1v-54.6
	C262.1,433.9,259.4,431.2,256,431.2z"/>
<path d="M101.8,386.9L59,429.5c-2.4,2.4-2.3,6.3,0.1,8.6c2.4,2.3,6.2,2.3,8.6,0l42.8-42.6c2.4-2.4,2.4-6.2,0-8.6
	C108,384.5,104.2,384.5,101.8,386.9C101.8,386.9,101.8,386.9,101.8,386.9z"/>
<path d="M410.2,386.9c-2.4-2.4-6.3-2.4-8.7,0c-2.4,2.4-2.4,6.2,0,8.6l42.8,42.6c2.4,2.4,6.3,2.3,8.7-0.1c2.3-2.4,2.3-6.2,0-8.6
	L410.2,386.9z"/>
<path d="M74.3,208.5c-14.1,13.2-27.5,27.1-40.1,41.8c-2.2,2.6-1.9,6.4,0.7,8.6c2.6,2.2,6.4,1.9,8.6-0.7
	c12.3-14.3,25.3-27.9,39.1-40.8c2.5-2.3,2.7-6.1,0.4-8.6S76.9,206.1,74.3,208.5C74.4,208.4,74.4,208.5,74.3,208.5L74.3,208.5z"/>
<path d="M93.8,191.3c-1.2,1-2.4,2-3.6,3.1c-2.6,2.2-2.9,6-0.7,8.6c2.2,2.6,6.1,2.9,8.6,0.7c1.2-1,2.3-2,3.5-3c2.6-2.2,2.9-6,0.8-8.6
	C100.3,189.5,96.4,189.2,93.8,191.3z"/>
<path d="M259.3,113.3c-30.8-0.7-61.1,8.5-86.2,26.4c-2.8,1.9-3.4,5.7-1.5,8.5c1.9,2.8,5.8,3.4,8.5,1.5c0,0,0,0,0.1-0.1
	c23.1-16.5,51.1-24.9,79.5-24.1c68.9,1.9,124.9,57.4,127.2,126.1c2.5,74.4-57.9,135.7-132.2,135c-70.7-0.7-128.5-58-129.6-128.4
	c-0.5-28.8,8.6-56.9,25.9-80c1.8-2.4,1.6-5.8-0.6-8c-2.4-2.4-6.3-2.4-8.7,0c-0.2,0.2-0.4,0.4-0.6,0.7
	c-19.4,25.9-29.4,57.7-28.2,90.1c2.5,75.3,64.3,136.2,139.9,137.8c81.5,1.8,148.2-64.7,146.4-145.9
	C397.5,176.8,335.5,115,259.3,113.3L259.3,113.3z"/>
<path d="M256.6,308c29.8,0,53.9-24.1,53.9-53.7c0-29.7-24.1-53.7-53.9-53.7c-29.8,0-53.9,24.1-53.9,53.7c0,0,0,0,0,0
	C202.7,283.9,226.8,308,256.6,308z M256.6,212.7c23,0,41.7,18.6,41.7,41.5c0,22.9-18.7,41.5-41.7,41.5c-23,0-41.7-18.6-41.7-41.5
	c0,0,0,0,0,0C215,231.3,233.6,212.8,256.6,212.7z"/>
<path d="M256.6,277.1c12.6,0,22.9-10.2,22.9-22.8c0-12.6-10.3-22.8-22.9-22.8s-22.9,10.2-22.9,22.8c0,0,0,0,0,0
	C233.7,266.9,243.9,277.1,256.6,277.1z M256.6,243.6c5.9,0,10.7,4.8,10.7,10.6c0,5.9-4.8,10.6-10.7,10.6c-5.9,0-10.7-4.8-10.7-10.6
	c0,0,0,0,0,0C245.9,248.4,250.7,243.6,256.6,243.6z"/>
<path d="M160,272.6l19.9,3.2c1.7,6,4.1,11.9,7.1,17.3l-12,16.4c-1.8,2.4-1.5,5.8,0.6,7.9l17.5,17.5c2.1,2.1,5.5,2.4,7.9,0.6
	l16.4-11.9c5.5,3.1,11.3,5.5,17.4,7.2l3.2,19.8c0.5,2.9,3.1,5.1,6,5H269c3,0.1,5.6-2.1,6-5l3.2-19.9c6.1-1.7,11.9-4.1,17.4-7.1
	l16.4,11.9c2.4,1.8,5.8,1.5,7.9-0.6l17.5-17.5c2.1-2.1,2.4-5.5,0.6-7.9l-11.9-16.4c3.1-5.5,5.5-11.3,7.2-17.3l20.3-3.2
	c3-0.5,5.3-3,5.4-6v-24.7c-0.1-3-2.4-5.6-5.4-6l-20.2-3.2c-1.7-6-4.2-11.9-7.3-17.3l11.9-16.4c1.8-2.4,1.5-5.8-0.6-7.9l-17.5-17.5
	c-2.1-2.1-5.5-2.4-7.9-0.6l-16.4,11.9c-5.5-3.1-11.3-5.5-17.4-7.2l-3.2-20.1c-0.5-3-3-5.2-6-5.3h-24.8c-3,0.1-5.6,2.3-6,5.3
	l-3.2,20.1c-6.1,1.7-11.9,4.1-17.4,7.2L201.1,173c-2.4-1.8-5.8-1.5-7.9,0.6l-17.5,17.5c-2.1,2.1-2.4,5.5-0.6,7.9l11.9,16.4
	c-3.1,5.5-5.5,11.3-7.2,17.3l-19.8,3.2c-2.9,0.5-5,3.1-4.9,6v24.7C154.9,269.6,157,272.1,160,272.6L160,272.6z M167.3,247.1l18.7-3
	c2.5-0.4,4.4-2.3,4.9-4.7c1.7-7.5,4.6-14.6,8.7-21.1c1.3-2.1,1.2-4.8-0.2-6.8L188.1,196l10.1-10.1l15.5,11.2c2,1.5,4.7,1.6,6.9,0.2
	c6.5-4.1,13.7-7.1,21.2-8.8c2.5-0.6,4.3-2.6,4.7-5.1l3-19h14.3l3,19c0.4,2.5,2.2,4.5,4.7,5.1c7.5,1.7,14.7,4.7,21.2,8.8
	c2.1,1.3,4.8,1.3,6.9-0.2l15.5-11.2l10.1,10.1l-11.2,15.4c-1.5,2-1.6,4.7-0.2,6.8c4.1,6.5,7.1,13.6,8.8,21.1
	c0.6,2.5,2.7,4.3,5.2,4.7l19.1,3v14.3l-19.1,3c-2.5,0.4-4.5,2.2-5.1,4.7c-1.7,7.5-4.7,14.6-8.8,21.1c-1.3,2.1-1.3,4.8,0.2,6.8
	l11.2,15.4L315,322.6l-15.5-11.2c-2-1.5-4.8-1.6-6.9-0.2c-6.5,4.1-13.7,7.1-21.2,8.8c-2.4,0.5-4.3,2.4-4.7,4.8l-3,18.7h-14.3
	l-3-18.7c-0.4-2.5-2.3-4.4-4.7-4.9c-7.5-1.7-14.7-4.6-21.2-8.7c-2.1-1.3-4.8-1.2-6.9,0.2l-15.5,11.2l-10.1-10.1l11.2-15.4
	c1.5-2,1.6-4.7,0.2-6.8c-4.1-6.5-7.1-13.6-8.8-21.1c-0.5-2.4-2.4-4.3-4.8-4.7l-18.7-3L167.3,247.1z"/>
</svg>
