<svg x="0px" y="0px" viewBox="0 0 512 512" style="fill:currentColor" xml:space="preserve">
<path style="fill:currentColor"  d="M256,0C114.6,0,0,114.6,0,256c0,141.4,114.6,256,256,256c23.6,0,42.7-19.1,42.7-42.7c0-11.1-4.1-21.1-11.1-28.6
	c-6.7-7.5-10.7-17.3-10.7-28.3c0-23.6,19.1-42.7,42.7-42.7h50.2c78.5,0,142.2-63.7,142.2-142.2C512,101.8,397.4,0,256,0z M99.6,256
	c-23.6,0-42.7-19.1-42.7-42.7s19.1-42.7,42.7-42.7c23.6,0,42.7,19.1,42.7,42.7S123.2,256,99.6,256z M184.9,142.2
	c-23.6,0-42.7-19.1-42.7-42.7c0-23.6,19.1-42.7,42.7-42.7s42.7,19.1,42.7,42.7C227.6,123.2,208.5,142.2,184.9,142.2z M327.1,142.2
	c-23.6,0-42.7-19.1-42.7-42.7c0-23.6,19.1-42.7,42.7-42.7s42.7,19.1,42.7,42.7C369.8,123.2,350.7,142.2,327.1,142.2z M412.4,256
	c-23.6,0-42.7-19.1-42.7-42.7s19.1-42.7,42.7-42.7c23.6,0,42.7,19.1,42.7,42.7S436.1,256,412.4,256z"/>
</svg>
