<svg x="0px" y="0px" viewBox="0 0 512 512" style="fill:currentColor" xml:space="preserve">
<rect x="202.9" y="392.5" style="fill:currentColor" width="102.4" height="102.4"/>
<path style="fill:currentColor" d="M160.2,477.9h187.7c4.7,0,8.5,3.8,8.5,8.5v17.1c0,4.7-3.8,8.5-8.5,8.5H160.2c-4.7,0-8.5-3.8-8.5-8.5v-17.1
	C151.7,481.7,155.5,477.9,160.2,477.9z"/>
<path style="fill:currentColor" d="M0,34.1C0,15.3,15.3,0,34.1,0h443.7C496.7,0,512,15.3,512,34.1v307.2H0V34.1z"/>
<path style="fill:currentColor" d="M0,375.5h512c0,18.9-15.3,34.1-34.1,34.1H34.1C15.3,409.6,0,394.3,0,375.5z"/>
</svg>
