<svg x="0px" y="0px" viewBox="0 0 512 512" style="fill:currentColor" xml:space="preserve">
<path style="fill:currentColor" d="M255.9,512h171c17.6,0,31.9-14.3,31.9-31.9V65.4V31.9c0-17.6-14.3-31.9-31.9-31.9h-171H199v10.6
	c0.1,1.1,0.2,2.2,0.2,3.4v69.5v17.8c0,24.8-20.1,44.9-44.9,44.9h-17.8H66.9c-0.9,0-1.9-0.1-2.8-0.1H53v334
	c0,17.6,14.3,31.9,31.9,31.9h35H255.9z M262.3,403.6H150.8c-8.3,0-15.1-6.8-15.1-15.1c0-8.3,6.8-15.1,15.1-15.1h111.5
	c8.3,0,15.1,6.8,15.1,15.1C277.4,396.8,270.6,403.6,262.3,403.6z M373.8,326.7h-223c-8.3,0-15.1-6.8-15.1-15.1s6.8-15.1,15.1-15.1
	h223c8.3,0,15.1,6.8,15.1,15.1S382.2,326.7,373.8,326.7z M150.8,214.8h223c8.3,0,15.1,6.8,15.1,15.1s-6.8,15.1-15.1,15.1h-223
	c-8.3,0-15.1-6.8-15.1-15.1S142.5,214.8,150.8,214.8z"/>
<path style="fill:currentColor" d="M66.9,128.1h87.4c0.1,0,0.2,0,0.2,0c14.6-0.1,26.4-11.9,26.5-26.5c0-0.1,0-0.2,0-0.2V13.9
	c0-8.1-6.6-13.4-13.5-13.4c-3.3,0-6.6,1.2-9.4,4L57.4,105.2C48.9,113.7,54.9,128.1,66.9,128.1z"/>
</svg>
