<svg x="0px" y="0px" viewBox="0 0 512 512" style="fill:currentColor" xml:space="preserve">
<g>
	<g>
		<path d="M356.9,124.5C329.9,97.7,294.1,83,256.1,83c-0.3,0-0.7,0-1,0c-41.1,0.3-80.2,18.4-107.3,49.8c-3.6,4.2-3.1,10.5,1,14.1
			c4.2,3.6,10.5,3.1,14.1-1c23.3-27,56.9-42.6,92.3-42.9c0.3,0,0.6,0,0.9,0c32.7,0,63.5,12.7,86.7,35.7
			c23.4,23.3,36.3,54.3,36.3,87.3c0,31.5-11.9,61.5-33.6,84.4c-22.7,24.1-36.1,54.5-38.1,86.5H288V291h6.3
			c14.5,0,26.3-11.8,26.3-26.3v-1.3c0-14.5-11.8-26.3-26.3-26.3c-14.5,0-26.3,11.8-26.3,26.3v7.7h-24v-7.7
			c0-14.5-11.8-26.3-26.3-26.3H216c-14.5,0-26.3,11.8-26.3,26.3v1.3c0,14.5,11.8,26.3,26.3,26.3h8v106h-19.3
			c-1.9-32.4-15-62.5-37.3-85.7c-23-23.9-35.2-55.4-34.3-88.7c0.1-5.5-4.2-10.1-9.7-10.3c-5.5-0.2-10.1,4.2-10.3,9.7
			c-1.1,38.7,13.1,75.3,39.9,103.1c20.6,21.4,32,50,32,80.3v1.6v27.4c0,21.4,16.2,39.1,37,41.4v2.3c0,18.7,15.3,34,34,34
			s34-15.3,34-34v-2.2c20.9-2.2,37.2-19.9,37.2-41.4V407v-1.6c0-29.9,11.7-58.8,32.9-81.2c25.2-26.6,39-61.5,39-98.2
			C399.1,187.6,384.1,151.6,356.9,124.5z M288,263.3c0-3.5,2.8-6.3,6.3-6.3s6.3,2.8,6.3,6.3v1.3c0,3.5-2.8,6.3-6.3,6.3H288V263.3z
			 M244,291h24v106h-24V291z M216,271c-3.5,0-6.3-2.8-6.3-6.3v-1.3c0-3.5,2.8-6.3,6.3-6.3h1.7c3.5,0,6.3,2.8,6.3,6.3v7.7L216,271
			L216,271z M270,478c0,7.7-6.3,14-14,14s-14-6.3-14-14v-2h28V478z M307.2,434.4c0,11.9-9.7,21.6-21.6,21.6H280h-48h-5.4
			c-11.9,0-21.6-9.7-21.6-21.6V417h102.2V434.4z"/>
	</g>
</g>
<g>
	<g>
		<path d="M256,0c-5.5,0-10,4.5-10,10v37.3c0,5.5,4.5,10,10,10c5.5,0,10-4.5,10-10V10C266,4.5,261.5,0,256,0z"/>
	</g>
</g>
<g>
	<g>
		<path d="M472,216h-37.3c-5.5,0-10,4.5-10,10s4.5,10,10,10H472c5.5,0,10-4.5,10-10S477.5,216,472,216z"/>
	</g>
</g>
<g>
	<g>
		<path d="M77.3,216H40c-5.5,0-10,4.5-10,10s4.5,10,10,10h37.3c5.5,0,10-4.5,10-10S82.8,216,77.3,216z"/>
	</g>
</g>
<g>
	<g>
		<path d="M136.7,92.6l-26.4-26.4c-3.9-3.9-10.2-3.9-14.1,0c-3.9,3.9-3.9,10.2,0,14.1l26.4,26.4c2,2,4.5,2.9,7.1,2.9
			c2.6,0,5.1-1,7.1-2.9C140.6,102.8,140.6,96.5,136.7,92.6z"/>
	</g>
</g>
<g>
	<g>
		<path d="M415.8,66.2c-3.9-3.9-10.2-3.9-14.1,0l-26.4,26.4c-3.9,3.9-3.9,10.2,0,14.1c2,2,4.5,2.9,7.1,2.9s5.1-1,7.1-2.9l26.4-26.4
			C419.7,76.4,419.7,70.1,415.8,66.2z"/>
	</g>
</g>
<g>
	<g>
		<path d="M349.6,188.3c-7.5-18.6-20.2-34.4-36.8-45.8c-16.8-11.5-36.5-17.6-56.9-17.6c-0.2,0-0.5,0-0.7,0c-5.5,0-10,4.5-9.9,10.1
			c0,5.5,4.5,9.9,10,9.9c0,0,0,0,0.1,0c0.2,0,0.4,0,0.6,0c33.3,0,62.8,19.9,75.2,50.8c1.6,3.9,5.3,6.3,9.3,6.3
			c1.2,0,2.5-0.2,3.7-0.7C349.2,199.2,351.7,193.4,349.6,188.3z"/>
	</g>
</g>
<g>
	<g>
		<path d="M354,219c-1.9-1.9-4.4-2.9-7.1-2.9c-2.6,0-5.2,1.1-7.1,2.9c-1.9,1.9-2.9,4.4-2.9,7.1s1.1,5.2,2.9,7.1
			c1.9,1.9,4.4,2.9,7.1,2.9c2.6,0,5.2-1.1,7.1-2.9c1.9-1.9,2.9-4.4,2.9-7.1S355.8,220.8,354,219z"/>
	</g>
</g>
<g>
	<g>
		<path d="M140.6,167.4c-1.9-1.9-4.4-2.9-7.1-2.9s-5.2,1.1-7.1,2.9c-1.9,1.9-2.9,4.4-2.9,7.1c0,2.6,1.1,5.2,2.9,7.1
			c1.9,1.9,4.4,2.9,7.1,2.9s5.2-1.1,7.1-2.9c1.9-1.9,2.9-4.4,2.9-7.1C143.5,171.9,142.4,169.3,140.6,167.4z"/>
	</g>
</g>
</svg>
