<svg x="0px" y="0px" viewBox="0 0 512 512" style="fill:currentColor" xml:space="preserve">
<path d="M183.2,99c-6.8-2.8-13.9-4.3-21.3-4.3c-22.3,0-42.2,13.3-50.9,33.8c-11.7,28,1.5,60.4,29.6,72.1c6.8,2.8,13.9,4.3,21.3,4.3
	c22.3,0,42.2-13.3,50.9-33.8C224.5,143.1,211.3,110.7,183.2,99z M199,165.3c-6.3,15-20.8,24.6-37,24.6c-5.3,0-10.5-1.1-15.5-3.1
	c-20.4-8.5-30.1-32.1-21.5-52.5c6.3-15,20.8-24.6,37-24.6c5.3,0,10.5,1,15.5,3.1C197.8,121.4,207.5,144.9,199,165.3z"/>
<path d="M76.5,324c10.4,10.6,24.4,16.4,39.2,16.4c14.6,0,28.3-5.6,38.7-15.9c21.6-21.3,21.9-56.3,0.6-77.9
	c-10.4-10.6-24.4-16.4-39.2-16.4c-14.6,0-28.3,5.6-38.7,15.9C55.4,267.4,55.1,302.4,76.5,324z M115.7,245.3c10.8,0,21,4.2,28.6,12
	c15.5,15.8,15.3,41.2-0.4,56.7c-7.6,7.4-17.5,11.5-28.1,11.5c-10.8,0-21-4.2-28.6-12c-15.5-15.8-15.3-41.2,0.4-56.7
	C95.1,249.4,105.1,245.3,115.7,245.3z"/>
<path d="M188.1,348c-28.2,11.3-41.9,43.5-30.6,71.7c8.4,21,28.5,34.6,51.2,34.6c7,0,13.9-1.3,20.5-4c28.2-11.3,41.9-43.5,30.6-71.7
	c-8.4-21-28.5-34.6-51.2-34.6C201.6,344,194.7,345.4,188.1,348z M245.8,384.2c8.2,20.5-1.8,43.9-22.3,52.2
	c-4.8,1.9-9.8,2.9-14.9,2.9c-16.5,0-31.1-9.9-37.2-25.2c-8.2-20.5,1.8-43.9,22.3-52.2c4.8-1.9,9.8-2.9,14.9-2.9
	C225.1,359,239.7,368.9,245.8,384.2z"/>
<path d="M213,272.6v-11.4c0-4.1-3.4-7.5-7.5-7.5c-4.1,0-7.5,3.4-7.5,7.5v11.4c0,4.1,3.4,7.5,7.5,7.5
	C209.6,280.1,213,276.7,213,272.6z"/>
<path d="M339.4,272.6v-11.4c0-4.1-3.4-7.5-7.5-7.5s-7.5,3.4-7.5,7.5v11.4c0,4.1,3.4,7.5,7.5,7.5S339.4,276.7,339.4,272.6z"/>
<path d="M268.7,286.2c8.2,0,16-3.5,21.2-9.5c2.7-3.1,2.4-7.9-0.7-10.6s-7.9-2.4-10.6,0.7c-2.4,2.8-6,4.3-10,4.3
	c-3.9,0-7.5-1.6-10-4.3c-2.7-3.1-7.5-3.4-10.6-0.7s-3.4,7.5-0.7,10.6C252.7,282.7,260.4,286.2,268.7,286.2z"/>
<path d="M339.6,132.1c1-25.9,8.6-51.9,21.4-74.4c0.1-0.2,0.2-0.4,0.3-0.6c9.5-16.6,20.7-29.5,31-39c2.8-2.6,6.3-3.6,9.7-2.8
	c3.8,0.9,6.9,3.9,8.5,8.1c6,16.3,15.3,31.8,27.5,46.1c2.7,3.2,7.4,3.5,10.6,0.8c3.2-2.7,3.5-7.4,0.8-10.6
	c-11.1-13-19.4-27-24.9-41.6c-3.3-8.9-10.5-15.5-19.1-17.5c-8.3-2-16.8,0.4-23.3,6.5c-10.1,9.4-21,21.7-30.6,37.3
	c-29-12.5-59.8-19-91.8-19.4c-64.6-0.8-125.4,23.7-171.3,69C42.3,139.3,17,199.8,17,264.4c0,54.9,19.1,108.6,53.7,151.1
	c2.6,3.2,7.3,3.7,10.6,1.1c3.2-2.6,3.7-7.3,1.1-10.6C49.9,366.1,32,315.8,32,264.4c0-60.5,23.7-117.2,66.8-159.7
	c43-42.5,100.1-65.5,160.6-64.7c29.4,0.4,57.9,6.3,84.6,17.6C338,69.2,333,82.3,329.5,97c-9.2-6.5-20.2-10.1-31.8-10.1
	c-30.4,0-55.1,24.7-55.1,55.1s24.7,55.1,55.1,55.1c14.6,0,28.2-5.7,38.4-15.6c2.1,3.6,4.6,7.1,7.3,10.4c3.2,4,6.8,7.6,10.7,11
	l8.4,165.4l-25.5,12.7c-19.2,9.6-32.2,28.9-33.8,50.3l-1.1,15.1c-1.8,23.7-21.7,42.4-45.3,42.4h-0.5c-57.7,0-112.5-21.8-154.3-61.5
	c-3-2.8-7.8-2.7-10.6,0.3c-2.9,3-2.7,7.8,0.3,10.6c44.6,42.3,103.1,65.6,164.6,65.6l0.5,0c31.4-0.1,57.8-24.8,60.2-56.3l1.1-15.1
	c1.2-16.2,11-30.8,25.6-38.1l19.6-9.8l4.7,93.5c1,19,16.6,33.9,35.7,33.9s34.7-14.9,35.7-33.9l6.8-134.9l14.7-7.4
	c19.2-9.6,31.8-28.1,33.7-49.5c0.7-7.2,1-14.6,1-21.9c0-32.8-6.5-64.5-19.2-94.3c11.1-27.6,8-60.8-7.4-86.1
	c-2.2-3.5-6.8-4.6-10.3-2.5c-3.5,2.2-4.6,6.8-2.5,10.3c13.4,22,15.9,51.6,5.2,75.2c-10.4,23.1-34.2,39.9-59.9,39.2
	C362.9,205,338.1,168.5,339.6,132.1z M297.8,182.1c-22.1,0-40.1-18-40.1-40.1s18-40.1,40.1-40.1c10.8,0,21,4.3,28.6,12
	c0.2,0.2-0.3,2.4-0.4,2.8c-2.1,16.9-2.4,33.9,3.3,50.1C321.7,176.4,310.2,182.1,297.8,182.1z M453.5,202c0.5-0.4,1-0.8,1.5-1.3
	c4.5-4.1,8.7-8.7,12.3-13.7c9,24.7,13.6,50.6,13.6,77.3c0,6.9-0.3,13.8-0.9,20.6c-1.5,16.2-11,30.2-25.5,37.4l-7.2,3.6L453.5,202z
	 M424.5,477.3c-0.6,11-9.6,19.7-20.7,19.7s-20.1-8.6-20.7-19.7l-8.6-168.9c1.3,0.3,2.5,0.6,3.8,0.9c8.3,1.8,16.9,2.7,25.4,2.7
	c1.5,0,3.1,0,4.6-0.1c8.3-0.3,16.6-1.5,24.7-3.5L424.5,477.3z M370.1,213.4c7.7,3.8,16.1,6.3,24.6,7.3c7.7,0.9,15.4,0.6,23-0.9
	c6.9-1.4,13.7-3.7,19.9-7c0.1,0,0.2-0.1,0.3-0.1l-4.1,80c-9.7,3-19.9,4.4-30.1,4.4c-10.1,0-20.3-1.5-30.1-4.4l-4-79.5
	C369.9,213.2,370,213.3,370.1,213.4z"/>
</svg>
