<svg viewBox="0 0 372 512" style="fill:currentColor" xml:space="preserve">
<g>
	<g>
		<defs>
			<rect id="SVGID_1_" x="0.5" y="0.1" width="371.6" height="512"/>
		</defs>
		<clipPath id="SVGID_2_">
			<use xlink:href="#SVGID_1_"  style="overflow:visible;"/>
		</clipPath>
		<path style="clip-path:url(#SVGID_2_)" d="M221.8,329.3c-14.3,0-26,11.7-26,26c0,14.4,11.7,26,26,26c14.4,0,26-11.7,26-26S236.2,329.3,221.8,329.3
			 M221.8,364.8c-5.2,0-9.4-4.2-9.4-9.4s4.2-9.4,9.4-9.4c5.2,0,9.4,4.2,9.4,9.4S227,364.8,221.8,364.8z"/>
	</g>
	<g>
		<defs>
			<rect id="SVGID_3_" x="0.5" y="0.1" width="371.6" height="512"/>
		</defs>
		<clipPath id="SVGID_4_">
			<use xlink:href="#SVGID_3_"  style="overflow:visible;"/>
		</clipPath>
		<path style="clip-path:url(#SVGID_4_)" d="M356.1,49.5l3.5-10.4c1.5-4.4-0.9-9.1-5.2-10.6c-4.4-1.5-9.1,0.9-10.6,5.2l-3.5,10.4
			c-6.1-0.5-12.2,0.6-17.9,3.4c-8.2,4-14.3,11-17.2,19.7l-32.7,96.2h-10.1l-1.7-120.9c-0.2-11.2-9.4-20.4-20.7-20.4
			c-11.2,0-20.5,9.1-20.7,20.4l-1.7,120.9h-19.1V66.1c0-1.7-0.5-3.3-1.4-4.6L158.5,3.8c-1.5-2.3-4.1-3.7-6.9-3.7
			c-2.8,0-5.4,1.4-6.9,3.7L106,61.5c-0.9,1.4-1.4,3-1.4,4.6v97.3H84.3c-4.6,0-8.3,3.7-8.3,8.3s3.7,8.3,8.3,8.3H86v28.1H53.8
			c-29.5,0-53.6,24-53.6,53.6v122.1c0,29.5,24,53.6,53.6,53.6H86v26.3c0,26.6,21.7,48.3,48.3,48.3h175.6c26.6,0,48.3-21.7,48.3-48.3
			V180.1h1.7c4.6,0,8.3-3.7,8.3-8.3s-3.7-8.3-8.3-8.3h-15.1L370,89.2C375,74.1,368.9,57.8,356.1,49.5 M85.9,389.6H56.7
			c-4.9,0-8.8-4-8.8-8.8V264.8c0-4.9,4-8.8,8.8-8.8h29.2V389.6z M85.9,239.2H56.7c-14.1,0-25.5,11.4-25.5,25.5v116.1
			c0,14.1,11.4,25.5,25.5,25.5h29.2v14.4H53.7c-20.4,0-36.9-16.6-36.9-36.9V261.8c0-20.4,16.6-36.9,36.9-36.9h32.2V239.2z
			 M301.9,128.6l33.1,11.3l-8,23.6h-37L301.9,128.6z M236.1,42.8c0-2.2,1.8-4,4-4s4,1.8,4,4l1.7,120.6h-11.4L236.1,42.8z
			 M223.4,180.1c0.5,0.1,1,0.3,1.5,0.3v94.8c0,4.5-3.7,8.2-8.2,8.2s-8.2-3.7-8.2-8.2v-26.8c0-13.7-11.2-24.9-24.9-24.9
			c-13.7,0-24.9,11.2-24.9,24.9v52c0,4.5-3.7,8.2-8.2,8.2s-8.2-3.7-8.2-8.2V180.1H223.4z M181.9,163.4h-22V82.1
			c7.4-0.6,14.8-2,22-4.1V163.4z M151.6,23.4l8.3,12.4c-2.7,0.8-5.4,1.2-8.3,1.2c-2.8,0-5.6-0.4-8.3-1.2L151.6,23.4z M133.8,50
			c5.6,2.4,11.6,3.7,17.8,3.7s12.2-1.3,17.8-3.7l8,12c-16.8,5.1-34.9,5.1-51.7,0L133.8,50z M121.2,78c7.2,2.1,14.6,3.5,22,4.1v81.3
			h-22V78z M341.4,463.8c0,17.4-14.2,31.6-31.6,31.6H134.2c-17.4,0-31.6-14.2-31.6-31.6V180.1h22.8v120.3
			c0,13.7,11.2,24.9,24.9,24.9s24.9-11.2,24.9-24.9v-52c0-4.5,3.7-8.2,8.2-8.2s8.2,3.7,8.2,8.2v26.8c0,13.7,11.2,24.9,24.9,24.9
			c13.7,0,24.9-11.2,24.9-24.9v-94.7l99.9-0.4L341.4,463.8L341.4,463.8z M354.1,83.8l-13.7,40.3l-33.1-11.3L321,72.6
			c1.5-4.4,4.6-8,8.8-10.1c4.2-2.1,8.9-2.4,13.4-0.9C352.3,64.7,357.2,74.7,354.1,83.8z"/>
	</g>
</g>
</svg>
