<svg x="0px" y="0px" viewBox="0 0 512 512" style="fill:currentColor" xml:space="preserve">
<g>
	<path d="M483.1,57.8h-128V28.9c0-16-12.9-28.9-28.9-28.9H185.8c-16,0-28.9,12.9-28.9,28.9v28.9h-128C12.9,57.8,0,70.8,0,86.7v313.8
		c0,16,12.9,28.9,28.9,28.9h158.3l-11.8,41.3h-35.1c-4.6,0-8.3,3.7-8.3,8.3v24.8c0,4.6,3.7,8.3,8.3,8.3h231.2c4.6,0,8.3-3.7,8.3-8.3
		V479c0-4.6-3.7-8.3-8.3-8.3h-35.1l-11.8-41.3h158.3c16,0,28.9-12.9,28.9-28.9V86.7C512,70.8,499.1,57.8,483.1,57.8z M277.6,16.5
		l-2.8,8.3h-37.6l-2.8-8.3H277.6z M173.4,28.9c0-6.8,5.5-12.4,12.4-12.4H217l6.4,19.1c1.1,3.4,4.3,5.6,7.8,5.6h49.5
		c3.6,0,6.7-2.3,7.8-5.6l6.4-19.1h31.2c6.8,0,12.4,5.5,12.4,12.4v239.5c0,6.8-5.5,12.4-12.4,12.4H185.8c-6.8,0-12.4-5.5-12.4-12.4
		V28.9z M363.4,487.2v8.3H148.6v-8.3H363.4z M192.6,470.7l11.8-41.3h103.2l11.8,41.3H192.6z M495.5,400.5c0,6.8-5.5,12.4-12.4,12.4
		H28.9c-6.8,0-12.4-5.5-12.4-12.4v-20.6h479V400.5z M495.5,363.4h-479V86.7c0-6.8,5.5-12.4,12.4-12.4h128v194.1
		c0,16,12.9,28.9,28.9,28.9H223v32c0,4.6,3.7,8.3,8.3,8.3c4.6,0,8.3-3.7,8.3-8.3v-32h8.3v16.5c0,4.6,3.7,8.3,8.3,8.3
		c4.6,0,8.3-3.7,8.3-8.3v-16.5h8.3v41.3c0,4.6,3.7,8.3,8.3,8.3s8.3-3.7,8.3-8.3v-41.3h37.2c16,0,28.9-12.9,28.9-28.9V74.3h128
		c6.8,0,12.4,5.5,12.4,12.4V363.4z"/>
	<path d="M239.5,272.5h33c4.6,0,8.3-3.7,8.3-8.3c0-4.6-3.7-8.3-8.3-8.3h-33c-4.6,0-8.3,3.7-8.3,8.3
		C231.2,268.8,234.9,272.5,239.5,272.5z"/>
</g>
</svg>
