<svg x="0px" y="0px" viewBox="0 0 512 512" style="fill:currentColor" xml:space="preserve">
<g>
	<g>
		<path d="M346.8,337.2h-200c-2.1,0-4.2,0.8-5.7,2.3l-96,96l11.3,11.3l93.7-93.7H338c-1.7,9.5-6.9,24-23.2,24h-88v16h88
			c31.6,0,40-31.4,40-48C354.8,340.8,351.2,337.2,346.8,337.2z"/>
	</g>
</g>
<g>
	<g>
		<path d="M448.5,283.5c-3.1-3.1-8.2-3.1-11.3,0l-72,72l11.3,11.3l65.7-65.7c10.8,14.4,8.6,34.7-5,46.4l-93.7,93.7H178.8
			c-2.1,0-4.2,0.8-5.7,2.3l-56,56l11.3,11.3l53.7-53.7h164.7c2.1,0,4.2-0.8,5.7-2.3l96-96C478.3,329,461.5,296.5,448.5,283.5z"/>
	</g>
</g>
<g>
	<g>
		<path d="M322.8,249.2c-7.5,0-14.4,2.6-19.8,6.9c-6.4-13.5-20.2-22.9-36.2-22.9s-29.8,9.4-36.2,22.9c-5.5-4.3-12.3-6.9-19.8-6.9
			c-17.7,0-32,14.3-32,32s14.3,32,32,32c10.8,0,20.3-5.3,26.1-13.5c7.3,8.3,18,13.5,29.9,13.5c11.9,0,22.6-5.2,29.9-13.5
			c5.8,8.2,15.3,13.5,26.1,13.5c17.7,0,32-14.3,32-32C354.8,263.5,340.5,249.2,322.8,249.2z M210.8,297.2c-8.8,0-16-7.2-16-16
			s7.2-16,16-16s16,7.2,16,16S219.7,297.2,210.8,297.2z M266.8,297.2c-13.3,0-24-10.7-24-24s10.7-24,24-24s24,10.7,24,24
			S280.1,297.2,266.8,297.2z M322.8,297.2c-8.8,0-16-7.2-16-16s7.2-16,16-16s16,7.2,16,16S331.7,297.2,322.8,297.2z"/>
	</g>
</g>
<g>
	<g>
		<path d="M464.5,107.5l-40-40l-11.3,11.3l26.3,26.3H330.8c-0.2,0-0.4,0-0.7,0c-8.7,0.2-15.5,7.3-15.3,16v48h16v-48h108.7
			l-26.3,26.3l11.3,11.3l40-40C467.6,115.7,467.6,110.6,464.5,107.5z"/>
	</g>
</g>
<g>
	<g>
		<path d="M272.5,3.5c-3.1-3.1-8.2-3.1-11.3,0l-40,40l11.3,11.3l26.3-26.3v124.7h16V28.5l26.3,26.3l11.3-11.3L272.5,3.5z"/>
	</g>
</g>
<g>
	<g>
		<rect x="314.8" y="185.2" width="16" height="48"/>
	</g>
</g>
<g>
	<g>
		<rect x="202.8" y="185.2" width="16" height="48"/>
	</g>
</g>
<g>
	<g>
		<rect x="258.8" y="169.2" width="16" height="48"/>
	</g>
</g>
<g>
	<g>
		<path d="M202.8,105.2H94.1l26.3-26.3l-11.3-11.3l-40,40c-3.1,3.1-3.1,8.2,0,11.3l40,40l11.3-11.3l-26.3-26.3h108.7v48h16v-48
			c0-0.2,0-0.4,0-0.7C218.6,111.9,211.5,105,202.8,105.2z"/>
	</g>
</g>
</svg>
