<svg x="0px" y="0px" viewBox="0 0 512 512" style="fill:currentColor" xml:space="preserve">
<path style="fill:currentColor" d="M486.9,71.7c-0.9-6.6-5.9-12-12.5-13.8L261.2,0.6c-3-0.8-6.2-0.8-9.3,0L38.7,57.9c-6.7,1.8-11.6,7.2-12.5,13.8
	C25,80.3-3.2,283,69.1,383.9C141.4,484.6,248,510.5,252.5,511.5c1.3,0.3,2.7,0.5,4.1,0.5c1.4,0,2.7-0.2,4.1-0.5
	c4.5-1,111.1-26.9,183.4-127.6C516.4,283,488.2,80.3,486.9,71.7z M394.1,190.1L248.6,330.4c-3.4,3.3-7.8,4.9-12.2,4.9
	s-8.9-1.6-12.2-4.9l-89.9-86.8c-3.3-3.1-5.1-7.4-5.1-11.8c0-4.4,1.8-8.7,5.1-11.8l17.8-17.2c6.8-6.5,17.7-6.5,24.5,0l59.8,57.7
	l115.3-111.3c3.3-3.1,7.7-4.9,12.2-4.9c4.6,0,9,1.8,12.2,4.9l17.8,17.2C400.8,172.9,400.8,183.5,394.1,190.1z"/>
</svg>
